<svg width="54" height="44" viewBox="0 0 54 44" fill="none" xmlns="http://www.w3.org/2000/svg">
<g clip-path="url(#clip0_597_2234)">
<path d="M8.03906 36.0002C8.03906 36.0002 9.23906 34.8002 10.1391 34.2002C11.0391 33.7002 11.7391 33.8002 11.7391 33.8002L14.9391 39.9002C14.9391 39.9002 16.3391 39.8002 16.7391 40.3002C17.2391 40.7002 16.7391 41.2002 16.3391 41.6002C15.8391 42.0002 14.6391 42.8002 14.4391 42.8002C14.2391 42.8002 13.6391 42.8002 13.2391 42.4002C12.8391 42.1002 12.0391 41.2002 11.7391 40.8002C11.4391 40.7002 8.03906 36.0002 8.03906 36.0002Z" fill="#ffffff"/>
<path d="M29.2385 34.3002C29.2385 34.3002 29.1385 35.1002 28.7385 36.1002C28.3385 37.1002 26.9385 39.7002 26.6385 40.1002C26.4385 40.5002 25.6385 41.2002 25.8385 42.1002C26.0385 43.0002 27.9385 43.5002 28.5385 43.5002C29.2385 43.5002 29.5385 43.3002 29.6385 42.8002C29.6385 42.3002 29.3385 41.7002 29.3385 41.6002C29.3385 41.5002 29.5385 41.0002 29.5385 40.9002C29.6385 40.8002 31.7385 38.1002 32.1385 37.7002C32.5385 37.3002 33.7385 35.6002 33.7385 35.6002C33.7385 35.6002 33.2385 34.7002 32.2385 34.5002C31.3385 34.2002 29.2385 34.3002 29.2385 34.3002Z" fill="#ffffff"/>
<path d="M52.5384 15.7C52.3384 15.6 51.3384 15.4 50.5384 15.3C49.7384 15.1 48.5384 14.9 47.7384 14.6C46.9384 14.3 46.1384 14 45.4384 13.7C44.7384 13.3 44.3384 12.7 44.0384 12.1C43.6384 11.4 43.0384 9.1 42.8384 8.3C42.6384 7.4 42.4384 6.9 42.7384 6.7C43.0384 6.5 44.5384 6.7 44.6384 6.7C44.8384 6.8 45.5384 6.9 45.6384 6.7C45.8384 6.5 45.6384 6.2 45.4384 6C45.2384 5.8 44.0384 4.8 43.6384 4.4C43.2384 4 42.4384 3 41.2384 3.2C39.9384 3.3 39.7384 4.4 39.3384 5.2C38.9384 6 38.5384 7 38.3384 7.1C38.1384 7.2 37.9384 7.4 37.4384 6.7C37.0384 6 36.7384 4 36.5384 3C36.3384 2 35.9384 0 35.4384 0C34.9384 0 34.7384 1.2 34.5384 2.2C34.3384 3.2 33.8384 5.3 33.4384 6.8C32.9384 8.3 32.2384 10 31.2384 12.1C30.2384 14.1 29.1384 15 27.6384 16C26.1384 17 24.1384 17.5 22.7384 17.5C21.3384 17.5 20.9384 17.4 19.9384 17.2C18.9384 17 15.0384 16.3 11.7384 16.8C8.33842 17.3 6.73842 18.5 6.73842 18.5C6.73842 18.5 4.83842 16.3 4.63842 13.5C4.23842 10.7 5.03842 8 5.03842 8C5.03842 8 4.93842 8.1 4.53842 8.6C4.13842 9.1 2.73842 11.3 2.23842 13.1C1.83842 14.8 1.73842 15.6 2.03842 18.1C2.43842 20.6 4.33842 22.8 4.33842 22.8C4.33842 22.8 4.33842 23.3 4.43842 24C4.53842 24.6 4.73842 25.8 4.73842 25.8C4.93842 27.5 4.93842 28.8 4.53842 30.1C4.13842 31.4 2.83842 34.7 1.23842 37.5C-0.361582 40.3 0.138418 41.4 0.138418 41.4C0.138418 41.4 2.23842 43 2.43842 43.1C2.53842 43.2 3.03842 43.5 3.53842 43C4.03842 42.6 3.73842 40.6 3.73842 40.6C3.73842 40.6 5.43842 38.3 6.83842 36.6C8.23842 34.9 8.83842 34.3 9.73842 33.7C10.5384 33.1 11.1384 33.2 11.6384 33.3C12.2384 33.4 13.9384 33.4 16.4384 33.5C18.8384 33.6 24.6384 33.5 25.6384 33.5C26.6384 33.5 31.2384 33.3 32.3384 33.5C33.4384 33.7 33.7384 34.1 33.9384 34.5C34.2384 34.9 35.0384 36.7 36.2384 38.7C37.4384 40.7 39.5384 42.3 39.7384 42.4C39.9384 42.5 40.3384 42.8 40.8384 42.8C41.2384 42.8 42.2384 42.4 42.8384 41.9C43.4384 41.5 44.2384 40.4 43.4384 40C42.7384 39.6 41.3384 39.9 41.3384 39.9C41.3384 39.9 40.9384 39.2 40.1384 37.6C39.3384 36 38.0384 32.5 37.9384 32.1C37.8384 31.6 37.7384 30.2 38.4384 28.4C39.1384 26.5 40.0384 25.6 41.2384 24.6C42.4384 23.7 43.2384 23.7 45.0384 23.7C46.8384 23.7 47.5384 23.5 47.7384 23.4C47.9384 23.3 47.9384 23 47.9384 23C47.9384 23 45.7384 22.7 45.5384 22.7C45.3384 22.7 44.5384 22.4 43.5384 22.1C42.9384 21.9 42.8384 21.9 42.8384 21.9L43.0384 21.7C44.6384 22 46.8384 22 47.4384 22C48.0384 22 49.1384 22 50.5384 21C51.8384 20.1 51.9384 19.2 51.9384 19.2C51.9384 19.2 52.2384 19 52.4384 18.7C52.7384 18.4 53.0384 17.9 53.0384 17.2C53.1384 16.5 52.7384 15.9 52.5384 15.7ZM41.1384 15.2C40.2384 15.5 39.6384 15.3 39.5384 15.4C39.4384 15.4 40.2384 15.2 40.4384 14.6C40.6384 14 40.1384 13.4 39.7384 13.3C39.3384 13.2 38.5384 13.3 38.2384 14.1C37.9384 14.9 38.6384 15.3 38.6384 15.3C38.6384 15.3 38.1384 15.3 37.9384 15.1C37.7384 14.9 37.5384 14.3 37.5384 14.3C37.9384 13.4 38.4384 12.9 40.1384 12.9C41.8384 12.9 42.2384 14.2 42.2384 14.2C42.2384 14.2 42.0384 14.9 41.1384 15.2Z" fill="#ffffff"/>
</g>
<defs>
<clipPath id="clip0_597_2234">
<rect width="53.1" height="43.5" fill="white" transform="translate(0.0390625)"/>
</clipPath>
</defs>
</svg>
